<svg xmlns="http://www.w3.org/2000/svg" viewBox="0 0 667.44141 820.91016"><title>Obscurity_Logo</title><text></text><path d="M667.43848,52.6084c-32.2268,56.99267-313.06073,692.67773-346.208,768.30176h-1.84134C300.05281,786.93457,30.26846,103.0249,2.64528,52.6084L81.83113,0C96.56339,49.3208,311.10238,585.26855,329.51734,619.24512,345.17052,592.94043,580.88674,35.07227,591.93581,0Z" fill="#190019"/><path d="M95.04,633.19043C35.64063,572.71,0,483.07031,0,368.59033,0,229.27,68.04,118.02979,150.12012,60.78955c63.7207-43.19971,129.60058-60.48,204.12011-60.48,65.88086,0,127.44043,16.2002,180.36036,54,78.84082,55.08008,132.84082,162.00049,132.84082,286.20068,0,112.31983-36.72071,221.39991-113.40039,295.92041-56.16016,55.08008-127.44043,87.4795-234.36036,87.4795C224.64063,723.91016,149.04,688.27051,95.04,633.19043ZM495.7207,602.9502c42.12012-48.59961,78.83985-119.87989,78.83985-239.75977,0-99.36035-24.83985-184.68066-77.75977-241.92041-41.04-46.44043-91.7998-66.96045-156.59961-66.96045-59.40039,0-111.24023,19.43994-152.28125,56.16016-50.75976,45.36035-95.04,129.60009-95.04,250.56054,0,106.91993,21.60059,181.44043,78.84082,241.91993,43.2002,46.44043,101.51953,66.96,163.08008,66.96C399.60059,669.91016,456.84082,647.23047,495.7207,602.9502Z" fill="#191919"/></svg>